HIERARCHY
ROOT hip
{
	OFFSET 0.000000 0.000000 0.000000 
	CHANNELS 6 Xposition Yposition Zposition Xrotation Zrotation Yrotation
	JOINT abdomen
	{
		OFFSET 0.000000 3.402643 0.000000 
		CHANNELS 3 Xrotation Zrotation Yrotation
		JOINT chest
		{
			OFFSET 0.000000 8.438565 -0.680529 
			CHANNELS 3 Xrotation Zrotation Yrotation
			JOINT neck
			{
				OFFSET 0.000000 10.207942 -0.272212 
				CHANNELS 3 Xrotation Zrotation Yrotation
				JOINT head
				{
					OFFSET 0.000000 3.130431 0.000000 
					CHANNELS 3 Xrotation Zrotation Yrotation
					End Site
					{
						OFFSET 0.000000 3.130435 0.000000 
					}
				}
			}
			JOINT lCollar
			{
				OFFSET 3.470700 6.669187 -0.816635 
				CHANNELS 3 Yrotation Zrotation Xrotation
				JOINT lShldr
				{
					OFFSET 3.198488 0.000000 0.000000 
					CHANNELS 3 Zrotation Yrotation Xrotation
					JOINT lForeArm
					{
						OFFSET 10.139888 0.000000 0.000000 
						CHANNELS 3 Yrotation Zrotation Xrotation
						JOINT lHand
						{
							OFFSET 8.370511 0.000000 0.000000 
							CHANNELS 3 Zrotation Yrotation Xrotation
							End Site
							{
								OFFSET 4.083176 0.000000 0.000000 
							}
						}
					}
				}
			}
			JOINT rCollar
			{
				OFFSET -3.470700 6.669187 -0.816635 
				CHANNELS 3 Yrotation Zrotation Xrotation
				JOINT rShldr
				{
					OFFSET -3.198488 0.000000 0.000000 
					CHANNELS 3 Zrotation Yrotation Xrotation
					JOINT rForeArm
					{
						OFFSET -10.139888 0.000000 0.000000 
						CHANNELS 3 Yrotation Zrotation Xrotation
						JOINT rHand
						{
							OFFSET -8.370511 0.000000 0.000000 
							CHANNELS 3 Zrotation Yrotation Xrotation
							End Site
							{
								OFFSET -4.083176 0.000000 0.000000 
							}
						}
					}
				}
			}
		}
	}
	JOINT lThigh
	{
		OFFSET 5.308129 -1.633274 1.361059 
		CHANNELS 3 Xrotation Zrotation Yrotation
		JOINT lShin
		{
			OFFSET -2.041588 -20.007561 0.000000 
			CHANNELS 3 Xrotation Zrotation Yrotation
			JOINT lFoot
			{
				OFFSET 0.000000 -19.190928 -1.224953 
				CHANNELS 3 Xrotation Yrotation Zrotation
				End Site
				{
					OFFSET 0.000000 -2.449906 4.627600 
				}
			}
		}
	}
	JOINT rThigh
	{
		OFFSET -5.308129 -1.633274 1.361059 
		CHANNELS 3 Xrotation Zrotation Yrotation
		JOINT rShin
		{
			OFFSET 2.041588 -20.007561 0.000000 
			CHANNELS 3 Xrotation Zrotation Yrotation
			JOINT rFoot
			{
				OFFSET 0.000000 -19.190928 -1.224953 
				CHANNELS 3 Xrotation Yrotation Zrotation
				End Site
				{
					OFFSET 0.000000 -2.449906 4.627600 
				}
			}
		}
	}
}
MOTION
Frames: 15
Frame Time: 0.016667
0.820147 43.958553 0.085464 3.964844 0.000000 -0.019531 17.314453 0.000000 -0.009766 3.232811 -0.019527 -1.142581 -8.544920 -0.009766 -0.009767 7.529296 -0.009766 0.000000 1.992188 -2.001953 0.000341 -72.418640 1.334470 -0.396564 -29.857445 -0.721523 8.413293 -8.589953 17.539904 -17.568071 -2.001953 1.992188 0.000000 75.334435 -19.031061 -5.125353 41.374348 0.607548 8.477604 3.850539 -18.649563 -11.516343 -29.813646 9.452820 -1.148787 27.562904 -1.299896 -2.341401 -2.066863 -0.820539 -7.676492 -7.563238 -12.989946 1.816542 24.505983 1.357040 2.078690 -21.059534 -2.497081 11.009248 
0.818895 43.958553 0.084212 3.964844 0.000000 -0.019531 17.314453 0.000000 -0.009766 3.232811 -0.019527 -1.142581 -8.544920 -0.009766 -0.009767 7.529296 -0.009766 0.000000 1.992188 -2.001953 0.000341 -72.418640 1.334470 -0.396564 -29.857445 -0.721523 8.413293 -8.589953 17.539904 -17.568071 -2.001953 1.992188 0.000000 75.334435 -19.031061 -5.125353 41.374348 0.607548 8.477604 3.850539 -18.649563 -11.516343 -29.813646 9.452819 -1.148787 27.562906 -1.299894 -2.341400 -2.066866 -0.820538 -7.676491 -7.563237 -12.989944 1.816542 24.505983 1.357039 2.078690 -21.059534 -2.497079 11.009249 
0.817642 43.958553 0.082960 3.964844 0.000000 -0.019531 17.314453 0.000000 -0.009766 3.232811 -0.019527 -1.142581 -8.544920 -0.009766 -0.009767 7.529296 -0.009766 0.000000 1.992188 -2.001953 0.000341 -72.418640 1.334470 -0.396564 -29.857445 -0.721523 8.413293 -8.589953 17.539904 -17.568071 -2.001953 1.992188 0.000000 75.334435 -19.031061 -5.125353 41.374348 0.607548 8.477604 3.850539 -18.649563 -11.516343 -29.813646 9.452819 -1.148787 27.562906 -1.299897 -2.341400 -2.066863 -0.820539 -7.676492 -7.563238 -12.989946 1.816542 24.505983 1.357038 2.078690 -21.059534 -2.497081 11.009248 
0.816391 43.958553 0.081708 3.964844 0.000000 -0.019531 17.314453 0.000000 -0.009766 3.232811 -0.019527 -1.142581 -8.544920 -0.009766 -0.009767 7.529296 -0.009766 0.000000 1.992188 -2.001953 0.000341 -72.418640 1.334470 -0.396564 -29.857445 -0.721523 8.413293 -8.589953 17.539904 -17.568071 -2.001953 1.992188 0.000000 75.334435 -19.031061 -5.125353 41.374348 0.607548 8.477604 3.850539 -18.649563 -11.516343 -29.813646 9.452819 -1.148787 27.562906 -1.299896 -2.341400 -2.066864 -0.820539 -7.676492 -7.563238 -12.989946 1.816542 24.505983 1.357038 2.078690 -21.059534 -2.497081 11.009248 
0.815139 43.958553 0.080456 3.964844 0.000000 -0.019531 17.314453 0.000000 -0.009766 3.232811 -0.019527 -1.142581 -8.544920 -0.009766 -0.009767 7.529296 -0.009766 0.000000 1.992188 -2.001953 0.000341 -72.418640 1.334470 -0.396564 -29.857445 -0.721523 8.413293 -8.589953 17.539904 -17.568071 -2.001953 1.992188 0.000000 75.334435 -19.031061 -5.125353 41.374348 0.607548 8.477604 3.850539 -18.649563 -11.516343 -29.813646 9.452819 -1.148787 27.562906 -1.299894 -2.341400 -2.066862 -0.820539 -7.676492 -7.563237 -12.989944 1.816542 24.505983 1.357039 2.078690 -21.059532 -2.497079 11.009249 
0.813887 43.958553 0.079204 3.964844 0.000000 -0.009766 17.324219 0.000000 -0.009766 3.232811 -0.019527 -1.142581 -8.544920 -0.009766 -0.009767 7.529296 -0.009766 0.000000 1.992188 -2.001953 0.000341 -72.418640 1.334470 -0.396564 -29.857445 -0.721523 8.413293 -8.589953 17.539904 -17.568071 -2.001953 1.992188 0.000000 75.334435 -19.031061 -5.125353 41.374348 0.607548 8.477604 3.850539 -18.649563 -11.516343 -29.813646 9.452818 -1.148787 27.562904 -1.299900 -2.341401 -2.076325 -0.829342 -7.669795 -7.563235 -12.989947 1.816542 24.505983 1.357036 2.078689 -21.059555 -2.497275 11.009134 
0.812634 43.958553 0.077951 3.964842 -0.009766 0.009766 17.333960 -0.029297 0.048828 3.232811 -0.019527 -1.142581 -8.544920 -0.009766 -0.009767 7.519522 -0.009766 0.058594 1.992188 -2.001953 0.000341 -72.428139 1.353489 -0.360016 -29.857445 -0.721523 8.413293 -8.589953 17.539904 -17.568071 -2.001953 1.992188 0.000000 75.359650 -18.818470 -5.325056 41.579613 0.604490 8.481444 3.842523 -18.653740 -11.501196 -29.782974 9.452416 -1.148590 27.504292 -1.299832 -2.338353 -2.049679 -0.834597 -7.670985 -7.527655 -12.985720 1.794595 24.447048 1.362721 2.076769 -21.030970 -2.503757 11.004729 
0.811380 43.958557 0.076698 3.964839 -0.009766 0.029297 17.343632 -0.058594 0.117187 3.232811 -0.019527 -1.142581 -8.544920 -0.009766 -0.009767 7.500000 0.000000 0.117188 1.992188 -2.001953 0.000341 -72.427856 1.369629 -0.313931 -29.857445 -0.721523 8.413293 -8.589953 17.539904 -17.568071 -2.001953 1.992188 0.000000 75.385757 -18.598753 -5.539608 41.794640 0.601728 8.475209 3.838369 -18.663107 -11.496594 -29.754965 9.442925 -1.146157 27.455387 -1.309577 -2.328288 -2.021937 -0.865493 -7.671974 -7.495138 -12.980698 1.784067 24.397814 1.362868 2.083990 -21.024719 -2.555431 10.996141 
0.791346 44.006123 0.056663 3.964779 -0.009765 0.380859 17.443083 -0.439379 1.054657 3.232811 -0.019527 -1.142581 -8.544920 -0.009766 -0.009767 7.393368 0.048822 0.927742 1.992188 -2.001953 0.000341 -72.552055 1.574994 0.167476 -29.957993 -0.711662 8.413541 -8.589953 17.539904 -17.568071 -2.001953 1.992188 0.000000 75.613319 -15.831504 -8.272835 44.598682 0.593236 8.498933 3.738753 -18.682959 -11.353495 -29.440376 9.383530 -1.092363 26.731718 -1.324544 -2.294127 -1.672294 -1.222806 -7.622959 -7.085227 -12.921974 1.707903 23.820797 1.382309 2.038449 -20.782389 -2.878104 10.921558 
0.771311 44.053696 0.036629 3.964719 -0.009765 0.732422 17.549946 -0.810057 1.992265 3.232811 -0.019527 -1.142581 -8.544920 -0.009766 -0.009767 7.278649 0.107372 1.738297 1.992188 -2.001953 0.000341 -72.676918 1.782497 0.647964 -30.068068 -0.708134 8.421373 -8.589953 17.539904 -17.568071 -2.001953 1.992188 0.000000 75.691635 -13.046433 -10.951049 47.393143 0.570490 8.528380 3.629716 -18.706617 -11.212035 -29.119791 9.315760 -1.056033 26.018114 -1.338709 -2.250494 -1.319728 -1.554519 -7.582767 -6.688752 -12.880109 1.622007 23.252346 1.402230 2.022545 -20.569820 -3.232032 10.808108 
0.756287 44.133831 0.021604 3.964474 -0.019528 1.083984 17.653034 -1.199581 2.949798 3.232811 -0.019527 -1.142581 -8.544920 -0.009766 -0.009767 7.155439 0.156093 2.568376 1.992188 -2.001953 0.000341 -72.790291 2.145629 0.664662 -30.207150 -0.704022 8.418083 -8.589953 17.539904 -17.568071 -2.001953 1.992188 0.000000 74.927650 -10.107736 -13.655267 50.206402 0.563436 8.563016 3.392628 -18.757744 -10.877337 -28.711454 9.254663 -0.983240 25.205441 -1.363769 -2.223349 -0.924365 -1.901784 -7.544715 -6.207034 -12.805670 1.534713 22.567162 1.421760 1.980610 -20.261347 -3.541841 10.722272 
0.741261 44.213966 0.006578 3.964358 -0.019525 1.425781 17.762356 -1.588079 3.917486 3.232811 -0.019527 -1.142581 -8.544920 -0.009766 -0.009767 7.024454 0.214466 3.398487 1.992188 -2.001953 0.000341 -72.912949 2.499607 0.676252 -30.346127 -0.704855 8.423269 -8.589953 17.539904 -17.568071 -2.001953 1.992188 0.000000 74.030098 -7.205790 -16.373138 53.010040 0.541731 8.584374 3.146094 -18.798256 -10.537992 -28.325092 9.197485 -0.939077 24.393398 -1.407016 -2.150706 -0.537849 -2.247597 -7.483701 -5.729781 -12.749103 1.447048 21.872011 1.441460 1.938266 -19.988714 -3.867479 10.628807 
0.726235 44.289101 -0.008448 3.964241 -0.019522 1.767578 17.857704 -1.984955 4.885626 3.232811 -0.019527 -1.142581 -8.544920 -0.009766 -0.009767 6.893723 0.253215 4.228561 1.992188 -2.001953 0.000341 -73.025276 2.853521 0.687223 -30.493406 -0.711874 8.419104 -8.589953 17.539904 -17.568071 -2.001953 1.992188 0.000000 72.809906 -4.284594 -19.154930 55.803505 0.524769 8.612254 2.846411 -18.859285 -10.099517 -27.865362 9.138461 -0.875724 23.454048 -1.422604 -2.104798 -0.102838 -2.588333 -7.468102 -5.202099 -12.689417 1.358263 21.098146 1.470631 1.883511 -19.671688 -4.177103 10.546497 
0.711208 44.364235 -0.023475 3.964124 -0.019518 2.109375 17.949371 -2.380112 5.854279 3.232811 -0.019527 -1.142581 -8.544920 -0.009766 -0.009767 6.765889 0.311278 5.068444 1.992188 -2.001953 0.000341 -73.127419 3.198015 0.694005 -30.651642 -0.715645 8.422411 -8.589953 17.539904 -17.568071 -2.001953 1.992188 0.000000 71.449600 -1.427416 -21.986250 58.586830 0.512432 8.637156 2.531493 -18.918734 -9.665246 -27.418055 9.080632 -0.841916 22.523113 -1.475111 -2.036685 0.353342 -2.919081 -7.413995 -4.666623 -12.624628 1.249671 20.314001 1.486758 1.855037 -19.343069 -4.475047 10.428825 
0.691174 44.436878 -0.043509 3.963586 -0.029270 2.460937 18.027622 -2.773211 6.823978 3.232811 -0.019527 -1.142581 -8.544920 -0.009766 -0.009767 6.628930 0.359415 5.898565 1.992188 -2.001953 0.000341 -73.228531 3.570585 0.708510 -30.820934 -0.711238 8.424626 -8.589953 17.539904 -17.568071 -2.001953 1.992188 0.000000 69.811653 1.308630 -24.890144 61.379364 0.514791 8.668378 2.203716 -18.977592 -9.204436 -26.904133 9.019987 -0.748971 21.495073 -1.491284 -1.985703 0.820770 -3.274337 -7.376380 -4.119745 -12.556112 1.141662 19.509727 1.516625 1.807786 -19.006855 -4.817225 10.331995 
